<svg width="25" height="25" viewBox="0 0 25 25" fill="none" xmlns="http://www.w3.org/2000/svg">
<path d="M23.3022 22.1026C23.3569 22.2634 23.4117 22.4242 23.4666 22.5851C23.4078 22.5754 23.3492 22.5657 23.2907 22.556C22.6467 22.4496 22.0142 22.345 21.3817 22.2379L21.3815 22.2378L21.2532 22.2161C20.4525 22.0808 19.6565 21.9463 18.8631 21.7992L18.8627 21.7991C18.4591 21.7246 18.1617 21.8893 17.9836 21.9879L17.9783 21.9909C17.9781 21.9909 17.978 21.991 17.9778 21.9911C13.9269 24.2278 9.89606 24.2549 6.03438 21.7741C4.01224 20.4749 2.60915 18.8769 1.77079 17.0264C0.931535 15.1739 0.644712 13.0384 0.903441 10.646L0.903567 10.6448C0.903563 10.6449 0.903585 10.6447 0.903652 10.6442C0.903718 10.6437 0.903828 10.643 0.904001 10.6419L0.905837 10.6327C0.907756 10.6239 0.910701 10.6124 0.915473 10.5956C0.919173 10.5825 0.922751 10.5706 0.92728 10.5554C0.929128 10.5492 0.931134 10.5425 0.933371 10.5349C0.940315 10.5115 0.948851 10.4823 0.956927 10.451C0.962636 10.4288 0.966819 10.4063 0.969446 10.3836C1.01876 9.95709 1.08444 9.58403 1.23071 9.24512C1.24168 9.21969 1.25052 9.1934 1.25714 9.16652C1.56575 7.91302 2.13871 6.77263 2.91187 5.72518L2.91195 5.72508C6.64028 0.671538 13.366 -0.504504 18.5968 2.99192L18.5969 2.99198C20.1338 4.01876 21.3232 5.38112 22.2026 7.01949L22.2028 7.01979C22.2386 7.08639 22.2606 7.14293 22.2913 7.22173C22.3101 7.26997 22.3321 7.32656 22.3626 7.3989C22.3771 7.43329 22.3953 7.46596 22.4171 7.49629C22.5356 7.66151 22.6171 7.85415 22.6738 8.07962C22.6805 8.10612 22.6893 8.13203 22.7003 8.15709C23.4002 9.765 23.6088 11.4599 23.4753 13.2214C23.3573 14.7764 22.9238 16.2444 22.1703 17.6139C22.0813 17.7757 22.0285 17.9462 22.0222 18.1306C22.0161 18.3094 22.0549 18.4705 22.1036 18.6109L22.1038 18.6114C22.5085 19.7731 22.905 20.9368 23.3022 22.1026Z" stroke="#1A1A1A" stroke-linejoin="round"/>
</svg>
