<svg width="55" height="56" viewBox="0 0 55 56" fill="none" xmlns="http://www.w3.org/2000/svg">
<path d="M1.69922 54.3623H51.5096" stroke="black" stroke-width="2.5" stroke-linecap="round" stroke-linejoin="round"/>
<path d="M4.58984 48.2421C5.50443 43.0323 8.21666 38.308 12.2546 34.8913C16.2926 31.4745 21.4006 29.5816 26.69 29.542C31.9686 29.5543 37.0713 31.4413 41.0879 34.8663C45.1045 38.2913 47.774 43.0317 48.6202 48.2421" stroke="black" stroke-width="2.5" stroke-linecap="round" stroke-linejoin="round"/>
<path d="M26.6905 29.3723C29.1317 29.3723 31.1106 27.3934 31.1106 24.9523C31.1106 22.5112 29.1317 20.5322 26.6905 20.5322C24.2494 20.5322 22.2705 22.5112 22.2705 24.9523C22.2705 27.3934 24.2494 29.3723 26.6905 29.3723Z" stroke="black" stroke-width="2.5" stroke-linecap="round" stroke-linejoin="round"/>
<path d="M26.6895 7.10059V13.3906" stroke="black" stroke-width="2.5" stroke-linecap="round" stroke-linejoin="round"/>
<path d="M13.5986 11.3506V17.4706" stroke="black" stroke-width="2.5" stroke-linecap="round" stroke-linejoin="round"/>
<path d="M39.7793 11.3506V17.4706" stroke="black" stroke-width="2.5" stroke-linecap="round" stroke-linejoin="round"/>
</svg>
