<svg width="55" height="59" viewBox="0 0 55 59" fill="none" xmlns="http://www.w3.org/2000/svg">
<rect width="55" height="58" transform="translate(0 0.299805)" fill="white"/>
<path d="M3.4375 29.2998H50.5313V34.0123C50.5313 38.6752 48.7748 43.147 45.6482 46.4442C42.5216 49.7413 38.2811 51.5936 33.8594 51.5936H20.1094C15.6877 51.5936 11.4472 49.7413 8.32058 46.4442C5.194 43.147 3.4375 38.6752 3.4375 34.0123V29.2998Z" stroke="black" stroke-width="2.5" stroke-linecap="round" stroke-linejoin="round"/>
<path d="M4.98535 8.09277H5.67279C8.81809 8.09277 11.8346 9.4104 14.0586 11.7558C16.2827 14.1012 17.5322 17.2821 17.5322 20.599H16.8447C13.6994 20.599 10.6829 19.2814 8.45883 16.936C6.23477 14.5906 4.98535 11.4096 4.98535 8.09277Z" stroke="black" stroke-width="2.5" stroke-linejoin="round"/>
<path d="M43.6691 17.3077C43.3594 18.6135 42.5706 19.736 41.4761 20.4285C40.3816 21.1209 39.071 21.3264 37.8328 20.9999C36.6937 20.7073 35.6983 19.9787 35.04 18.9556C34.266 19.8574 33.2684 20.5132 32.1598 20.8489C31.0512 21.1846 29.8756 21.1868 28.7659 20.8553C27.6561 20.5237 26.6563 19.8717 25.8793 18.9728C25.1023 18.0738 24.5791 16.9637 24.3686 15.7678C23.8259 16.0017 23.2251 16.0403 22.6595 15.8776C22.2653 15.7736 21.8945 15.5889 21.5681 15.3338C21.2416 15.0787 20.9661 14.7583 20.7571 14.3909C20.5481 14.0235 20.4097 13.6163 20.3499 13.1925C20.2902 12.7687 20.3101 12.3367 20.4087 11.9211C20.5478 11.2963 20.8634 10.7308 21.3137 10.2992C21.764 9.86754 22.3279 9.59008 22.9308 9.50346C22.9036 8.98281 22.9672 8.46131 23.1185 7.9649C23.389 6.85719 23.9736 5.86292 24.7943 5.11497C25.6149 4.36703 26.6325 3.90103 27.711 3.77924C28.7896 3.65746 29.8776 3.88569 30.8298 4.43345C31.782 4.98121 32.5531 5.8224 33.0398 6.84459C34.1851 6.35712 35.4475 6.26487 36.6457 6.58107C37.695 6.85714 38.6398 7.46342 39.3546 8.31935C40.0693 9.17528 40.5202 10.2403 40.6472 11.3729C41.7636 11.7842 42.6933 12.6218 43.2527 13.7205C43.8121 14.8192 43.9607 16.0991 43.6691 17.3077Z" stroke="black" stroke-width="2.5" stroke-linecap="round" stroke-linejoin="round"/>
<path d="M37.8347 20.9997C37.8347 20.9997 34.1113 19.541 31.7971 29.2999L26.9959 29.3513C26.9959 29.3513 28.8514 22.6475 25.4542 18.2953" stroke="black" stroke-width="2.5" stroke-linecap="round" stroke-linejoin="round"/>
</svg>
