<svg xmlns="http://www.w3.org/2000/svg" fill="none" viewBox="0 0 24 25"><path stroke="#fff" stroke-linecap="round" stroke-linejoin="round" stroke-width="1.5" d="M19.7 2v13.7h-5V7a5 5 0 0 1 5-5Z"/><path stroke="#fff" stroke-linecap="round" stroke-linejoin="round" stroke-width="1.5" d="M16.8 15.6h3v6.3a1.4 1.4 0 0 1-1.5 1.4h0a1.4 1.4 0 0 1-1.5-1.4v-6.3ZM7.2 23.3a1.7 1.7 0 0 1-1.7-1.7l.7-9.4h2l.8 9.4a1.7 1.7 0 0 1-1.8 1.7ZM10.6 8.8a3.5 3.5 0 0 1-6.8 0h6.8ZM3.8 2.6v6.2M7.1 2.6v6M10.6 2.6v6.2"/></svg>