<svg width="19" height="5" viewBox="0 0 19 5" fill="none" xmlns="http://www.w3.org/2000/svg">
<path d="M5.03036 2.74511C5.03036 3.96055 4.04047 4.95262 2.81302 4.95262C1.58557 4.95262 0.595703 3.96712 0.595703 2.74511C0.595703 1.52309 1.58557 0.537598 2.81302 0.537598C4.04047 0.537598 5.03036 1.52309 5.03036 2.74511Z" fill="#1A1A1A"/>
<path d="M11.6817 2.74511C11.6817 3.96055 10.6919 4.95262 9.46441 4.95262C8.23696 4.95262 7.24707 3.96712 7.24707 2.74511C7.24707 1.52309 8.23696 0.537598 9.46441 0.537598C10.6919 0.537598 11.6817 1.52309 11.6817 2.74511Z" fill="#1A1A1A"/>
<path d="M18.3282 2.74511C18.3282 3.96055 17.3383 4.95262 16.1109 4.95262C14.8834 4.95262 13.8936 3.96712 13.8936 2.74511C13.8936 1.52309 14.8834 0.537598 16.1109 0.537598C17.3383 0.537598 18.3282 1.52309 18.3282 2.74511Z" fill="#1A1A1A"/>
</svg>
