<svg width="13" height="14" viewBox="0 0 13 14" fill="none" xmlns="http://www.w3.org/2000/svg">
<path fill-rule="evenodd" clip-rule="evenodd" d="M6.5 13.9668C7.35359 13.9668 8.19883 13.7987 8.98744 13.472C9.77606 13.1454 10.4926 12.6666 11.0962 12.063C11.6998 11.4594 12.1786 10.7429 12.5052 9.95424C12.8319 9.16562 13 8.32039 13 7.4668C13 6.6132 12.8319 5.76797 12.5052 4.97935C12.1786 4.19074 11.6998 3.47418 11.0962 2.8706C10.4926 2.26702 9.77606 1.78824 8.98744 1.46158C8.19883 1.13492 7.35359 0.966797 6.5 0.966797C4.77609 0.966797 3.12279 1.65162 1.90381 2.8706C0.68482 4.08959 0 5.74289 0 7.4668C0 9.1907 0.68482 10.844 1.90381 12.063C3.12279 13.282 4.77609 13.9668 6.5 13.9668ZM6.33244 10.0957L9.94355 5.76235L8.83422 4.83791L5.72867 8.56385L4.12172 6.95619L3.1005 7.97741L5.26717 10.1441L5.82617 10.7031L6.33244 10.0957Z" fill="#EE6D44"/>
</svg>
