<svg width="17" height="16" viewBox="0 0 17 16" fill="none" xmlns="http://www.w3.org/2000/svg">
<path d="M5.87284 14.5173L1.23174 9.67828C0.843167 9.27301 0.624915 8.72339 0.625 8.15034C0.625085 7.57729 0.843501 7.02775 1.2322 6.6226C1.6209 6.21746 2.14803 5.9899 2.69765 5.98999C3.24726 5.99008 3.77433 6.21781 4.16291 6.62308L7.11592 9.70105L12.6452 2.01561C12.975 1.55725 13.4659 1.25426 14.01 1.17329C14.5541 1.09233 15.1067 1.24003 15.5463 1.5839C15.986 1.92777 16.2766 2.43964 16.3542 3.00691C16.4319 3.57418 16.2902 4.15037 15.9604 4.60874L8.99693 14.2867C8.81884 14.5346 8.59169 14.7397 8.33089 14.888C8.07008 15.0363 7.78173 15.1243 7.48541 15.1462C7.18908 15.1681 6.89171 15.1232 6.61347 15.0147C6.33523 14.9062 6.08264 14.7365 5.87284 14.5173Z" stroke="white" stroke-width="0.875" stroke-linejoin="round"/>
</svg>
