<svg width="41" height="42" viewBox="0 0 41 42" fill="none" xmlns="http://www.w3.org/2000/svg">
<path d="M25.4555 6.1748C25.4555 8.91699 23.2704 11.0498 20.461 11.0498C17.7296 11.0498 15.4665 8.91699 15.4665 6.1748C15.4665 3.50879 17.7296 1.2998 20.461 1.2998C23.2704 1.2998 25.4555 3.50879 25.4555 6.1748ZM13.5155 31.7686C12.6571 31.7686 12.0328 31.0068 12.3449 30.1689L14.7641 23.085L12.501 25.9795C11.6426 27.0459 10.0818 27.2744 8.98927 26.4365C7.89672 25.5986 7.66261 24.0752 8.52103 23.0088L13.1253 17.0674C14.8422 14.8584 17.5735 13.4873 20.539 13.4873C23.4265 13.4873 26.1578 14.8584 27.8747 17.0674L32.479 23.0088C33.3374 24.0752 33.1033 25.5986 32.0107 26.4365C30.9182 27.2744 29.3574 27.0459 28.499 25.9795L26.2359 23.085L28.6551 30.1689C28.9672 31.0068 28.3429 31.7686 27.4845 31.7686H26.1578V37.8623C26.1578 39.2334 24.9872 40.2998 23.6606 40.2998C22.2559 40.2998 21.1633 39.2334 21.1633 37.8623V31.7686H19.9147V37.8623C19.9147 39.2334 18.7441 40.2998 17.4175 40.2998C16.0128 40.2998 14.9202 39.2334 14.9202 37.8623V31.7686H13.5155Z" stroke="black" stroke-width="2.5"/>
</svg>
